<?xml version="1.0" encoding="UTF-8" standalone="no"?>
<!-- Created with Inkscape (http://www.inkscape.org/) -->

<svg
   xmlns:dc="http://purl.org/dc/elements/1.1/"
   xmlns:cc="http://creativecommons.org/ns#"
   xmlns:rdf="http://www.w3.org/1999/02/22-rdf-syntax-ns#"
   xmlns:svg="http://www.w3.org/2000/svg"
   xmlns="http://www.w3.org/2000/svg"
   xmlns:sodipodi="http://sodipodi.sourceforge.net/DTD/sodipodi-0.dtd"
   xmlns:inkscape="http://www.inkscape.org/namespaces/inkscape"
   width="56.677677mm"
   height="20.578051mm"
   viewBox="0 0 56.677677 20.578051"
   version="1.1"
   id="svg2070"
   inkscape:version="0.92.3 (2405546, 2018-03-11)"
   sodipodi:docname="dlpc_logo_white.svg">
  <defs
     id="defs2064" />
  <sodipodi:namedview
     id="base"
     pagecolor="#ffffff"
     bordercolor="#666666"
     borderopacity="1.0"
     inkscape:pageopacity="0.0"
     inkscape:pageshadow="2"
     inkscape:zoom="7.9195959"
     inkscape:cx="96.759558"
     inkscape:cy="54.039872"
     inkscape:document-units="mm"
     inkscape:current-layer="layer1"
     showgrid="false"
     fit-margin-top="0"
     fit-margin-left="0"
     fit-margin-right="0"
     fit-margin-bottom="0"
     inkscape:window-width="3742"
     inkscape:window-height="2049"
     inkscape:window-x="98"
     inkscape:window-y="55"
     inkscape:window-maximized="1" />
  <metadata
     id="metadata2067">
    <rdf:RDF>
      <cc:Work
         rdf:about="">
        <dc:format>image/svg+xml</dc:format>
        <dc:type
           rdf:resource="http://purl.org/dc/dcmitype/StillImage" />
        <dc:title></dc:title>
      </cc:Work>
    </rdf:RDF>
  </metadata>
  <g
     inkscape:label="Layer 1"
     inkscape:groupmode="layer"
     id="layer1"
     transform="translate(-77.494494,-138.54429)">
    <path
       inkscape:connector-curvature="0"
       style="fill:#ffffff;fill-opacity:1;stroke:none;stroke-width:0.50445282;stroke-miterlimit:4;stroke-dasharray:none;stroke-opacity:1"
       d="m 77.495528,138.54429 v 12.3455 h 56.676642 v -12.3455 z m 18.466057,2.42724 h 1.193726 v 7.38456 h -0.994256 -0.19947 z m -10.622608,0.0103 h 1.195276 v 7.37526 h -1.131197 v -0.54105 c -0.38014,0.3836 -0.829109,0.64647 -1.38648,0.64647 -0.754689,0 -1.365038,-0.24967 -1.761649,-0.75034 -0.396599,-0.50066 -0.576191,-1.22221 -0.576191,-2.14819 0,-0.92586 0.179454,-1.64801 0.574125,-2.14871 0.394668,-0.5007 1.00045,-0.74983 1.75183,-0.74983 0.53222,0 0.944687,0.31183 1.334286,0.65216 z m 21.433313,0.0217 h 3.05667 c 0.74214,0 1.33048,0.16386 1.73632,0.52349 0.40584,0.35963 0.60152,0.90084 0.60152,1.56993 0,0.6985 -0.16782,1.25707 -0.53124,1.63866 -0.36342,0.38159 -0.90406,0.56275 -1.57406,0.56275 h -0.0196 -1.98024 v 3.05873 h -1.08986 -0.19947 z m 1.28933,0.87695 v 2.51974 h 1.64021 c 0.40825,0 0.67642,-0.10439 0.8537,-0.29713 0.17728,-0.19277 0.28111,-0.50027 0.28111,-0.95292 0,-0.46014 -0.10549,-0.7729 -0.28318,-0.96893 -0.17769,-0.19602 -0.4439,-0.30076 -0.85163,-0.30076 z m -18.585943,0.78497 c 0.775758,0 1.400897,0.25439 1.808157,0.76739 0.407249,0.51299 0.593762,1.2543 0.593762,2.20504 v 0.28577 h -3.616833 c 0.03294,0.56021 0.11385,1.03794 0.288872,1.29087 v 0.002 c 0.209428,0.28593 0.500147,0.42375 0.947227,0.42375 0.685451,0 1.152115,-0.35896 1.486215,-1.18752 l 0.05116,-0.12506 h 0.790649 l -0.05839,0.24598 c -0.144661,0.60831 -0.407101,1.08587 -0.796851,1.4087 -0.38976,0.32282 -0.898676,0.48007 -1.493964,0.48007 -0.802132,0 -1.444707,-0.25062 -1.867588,-0.75964 -0.422883,-0.50902 -0.617021,-1.24669 -0.617021,-2.1916 0,-0.91074 0.194966,-1.62424 0.619083,-2.11512 0.424122,-0.49089 1.06493,-0.73019 1.865522,-0.73019 z m 37.667463,0 c 0.7069,0 1.25711,0.11517 1.65055,0.38085 0.39345,0.26567 0.60151,0.69359 0.60151,1.2051 v 2.97449 c 0,0.18334 0.0335,0.3001 0.0662,0.3514 0.0307,0.0481 0.0511,0.0579 0.11731,0.0589 0.006,-0.001 0.01,-0.002 0.0176,-0.004 0.0302,-0.008 0.076,-0.0199 0.13487,-0.0372 l 0.25787,-0.076 v 0.81442 l -0.19947,0.0661 h -0.0331 c 0.0138,0 -0.008,0.002 -0.0253,0.004 -0.0358,0.009 -0.0755,0.0173 -0.12144,0.0253 l 0.0294,-0.008 c -0.0671,0.022 -0.13637,0.0308 -0.20877,0.031 h -0.002 c -0.0496,0.006 -0.0986,0.01 -0.14832,0.01 -0.27625,0 -0.52309,-0.0696 -0.70745,-0.22634 -0.12546,-0.10663 -0.16943,-0.28399 -0.22843,-0.44908 -0.41236,0.38331 -0.88031,0.67541 -1.45676,0.67541 -0.62342,0 -1.1184,-0.12506 -1.46709,-0.40979 -0.34869,-0.28473 -0.52141,-0.72241 -0.52141,-1.25006 v -0.0315 l 0.003,-0.007 c 0.0119,-0.39581 0.2021,-0.75243 0.5364,-1.02784 0.34527,-0.28446 0.83672,-0.49882 1.47484,-0.66198 h 0.002 c 0.47239,-0.1181 0.82217,-0.23696 1.0387,-0.34364 0.10827,-0.0534 0.18281,-0.10351 0.21911,-0.13902 0.0359,-0.0351 0.0289,-0.0436 0.0289,-0.0331 v -0.18913 c 0,-0.38126 -0.0931,-0.58222 -0.23978,-0.68162 l -0.004,-0.002 -0.002,-0.002 c -0.16556,-0.12143 -0.41773,-0.19533 -0.77157,-0.19533 -0.45978,0 -0.77409,0.0963 -0.96273,0.25167 -0.17673,0.14453 -0.27543,0.37918 -0.27543,0.76584 v 0.19896 h -0.80305 v -0.23048 c 0,-0.5735 0.16648,-1.0432 0.51573,-1.35547 0.34925,-0.31227 0.85514,-0.45269 1.48466,-0.45269 z m -27.30634,5.3e-4 c 0.7069,0 1.25866,0.11518 1.65209,0.38085 0.39345,0.26567 0.60152,0.69359 0.60152,1.2051 v 2.97449 c 0,0.18334 0.034,0.3001 0.0667,0.3514 0.0307,0.0481 0.0511,0.0579 0.1173,0.0589 0.006,-0.001 0.01,-0.002 0.0176,-0.004 0.0302,-0.008 0.0755,-0.0199 0.13436,-0.0372 l 0.25632,-0.076 v 0.81442 l -0.19947,0.0661 h -0.0331 c 0.0146,0 -0.006,0.001 -0.0253,0.004 l -0.008,0.002 c -0.034,0.008 -0.0703,0.0162 -0.11317,0.0233 l 0.031,-0.008 c -0.0677,0.022 -0.13981,0.031 -0.21291,0.031 -0.0489,0.006 -0.0971,0.01 -0.14625,0.01 -0.27627,0 -0.52258,-0.0696 -0.70693,-0.22634 -0.1255,-0.10668 -0.17138,-0.28386 -0.23048,-0.44907 -0.41232,0.38319 -0.87885,0.67541 -1.455204,0.67541 -0.623419,0 -1.119955,-0.12506 -1.468644,-0.40979 -0.3487,-0.28473 -0.519867,-0.7224 -0.519867,-1.25005 0,-0.41145 0.192167,-0.78214 0.537435,-1.0666 0.345282,-0.28447 0.836219,-0.49882 1.47433,-0.66198 h 0.0016 c 0.4724,-0.1181 0.82268,-0.23697 1.03921,-0.34365 0.10827,-0.0534 0.18229,-0.10351 0.21859,-0.13901 0.0365,-0.0351 0.03,-0.0436 0.03,-0.0331 v -0.18914 c 0,-0.38126 -0.0936,-0.58221 -0.2403,-0.68161 l -0.002,-0.002 -0.004,-0.002 c -0.16554,-0.12144 -0.41565,-0.19533 -0.769479,-0.19533 -0.459791,0 -0.774092,0.0963 -0.962732,0.25166 h -0.0021 c -0.176732,0.14453 -0.275437,0.37919 -0.275437,0.76584 v 0.19896 h -0.80255 v -0.23048 c 0,-0.5735 0.168031,-1.0432 0.517281,-1.35547 0.34925,-0.31227 0.853075,-0.45269 1.482596,-0.45269 z m 15.02751,0 c 0.70691,0 1.25865,0.11517 1.65209,0.38085 0.39344,0.26567 0.60152,0.69359 0.60152,1.2051 v 2.97449 c 0,0.18334 0.0339,0.3001 0.0667,0.3514 0.0307,0.0481 0.0506,0.0579 0.11679,0.0589 0.006,-0.001 0.0101,-0.002 0.0181,-0.004 0.0302,-0.008 0.0755,-0.0199 0.13436,-0.0372 l 0.25579,-0.076 v 0.81442 l -0.19895,0.0661 h -0.0331 c 0.0146,0 -0.006,5.3e-4 -0.0253,0.004 l -0.008,0.002 c -0.034,0.008 -0.0703,0.0162 -0.11317,0.0233 l 0.031,-0.008 c -0.067,0.022 -0.13637,0.0308 -0.20877,0.031 h -0.002 c -0.0496,0.006 -0.0985,0.01 -0.14832,0.01 -0.27627,0 -0.52309,-0.0696 -0.70745,-0.22634 -0.1255,-0.10668 -0.17086,-0.28386 -0.22996,-0.44907 -0.41231,0.38319 -0.87884,0.67541 -1.4552,0.67541 -0.62341,0 -1.11996,-0.12506 -1.46865,-0.40979 -0.3427,-0.27989 -0.51278,-0.70808 -0.51878,-1.2237 l -10e-4,-0.005 v -0.0217 c 0,-0.41145 0.19371,-0.78214 0.53898,-1.0666 0.34528,-0.28446 0.83674,-0.49882 1.47485,-0.66198 0.47239,-0.1181 0.82268,-0.23696 1.03921,-0.34364 0.10827,-0.0534 0.18229,-0.10351 0.21859,-0.13901 0.0364,-0.0351 0.0289,-0.0436 0.0289,-0.0331 v -0.18913 c 0,-0.38126 -0.0931,-0.58221 -0.23978,-0.68161 l -0.002,-0.002 -0.004,-0.002 c -0.16552,-0.12144 -0.41562,-0.19533 -0.76946,-0.19533 -0.45978,0 -0.77409,0.0963 -0.96273,0.25166 h -0.002 c -0.17673,0.14453 -0.27544,0.37919 -0.27544,0.76585 v 0.19895 h -0.80307 v -0.23048 c 0,-0.5735 0.16856,-1.0432 0.5178,-1.35547 0.34925,-0.31227 0.85307,-0.45269 1.4826,-0.45269 z m 3.29695,0.10542 h 1.13172 v 0.71675 c 0.38491,-0.42061 0.89349,-0.70693 1.59938,-0.70693 h 0.19947 v 0.89813 h -0.19947 c -0.18555,0 -0.3324,0.007 -0.4315,0.0196 h -0.006 -0.006 c -0.0649,0.004 -0.19674,0.0401 -0.36948,0.11318 h -0.002 l -0.004,0.002 c -0.15586,0.0599 -0.26619,0.14057 -0.34779,0.24391 -0.0788,0.0998 -0.17011,0.28862 -0.25011,0.55294 -1.5e-4,10e-4 1.4e-4,0.002 0,0.002 -0.0709,0.25895 -0.10904,0.57941 -0.10904,0.96066 v 2.78329 h -1.00407 -0.20102 z m 3.36879,0 h 1.1312 v 0.71675 c 0.3849,-0.42061 0.89401,-0.70693 1.5999,-0.70693 h 0.19895 v 0.89813 h -0.19895 c -0.18555,0 -0.33292,0.007 -0.43202,0.0196 h -0.004 -0.006 c -0.0649,0.004 -0.19829,0.0401 -0.37103,0.11318 h -0.002 l -0.004,0.002 c -0.15586,0.0599 -0.26567,0.14057 -0.34727,0.24391 -0.0788,0.0998 -0.17011,0.28862 -0.25011,0.55294 -1.5e-4,10e-4 1.4e-4,0.002 0,0.002 -0.0709,0.25895 -0.10956,0.57941 -0.10956,0.96066 v 2.78329 h -1.00361 -0.20154 z m -37.460764,0.71675 c -0.399518,0 -0.656404,0.14353 -0.853694,0.47232 -0.19727,0.32879 -0.312126,0.86505 -0.312126,1.60352 0,0.7394 0.110271,1.2783 0.298691,1.60766 0.18842,0.32935 0.426884,0.4687 0.802534,0.4687 0.4621,0 0.765305,-0.15467 0.986504,-0.48266 0.2212,-0.328 0.347782,-0.85771 0.347782,-1.5937 0,-0.73692 -0.122166,-1.26913 -0.334346,-1.59732 -0.212169,-0.32817 -0.496533,-0.47852 -0.935345,-0.47852 z m 5.365049,0 c -0.403381,0 -0.667734,0.12962 -0.865065,0.40618 -0.167487,0.23475 -0.242319,0.66385 -0.28112,1.15238 h 2.32234 c -0.01413,-0.52773 -0.106262,-0.93748 -0.287321,-1.17615 -0.19403,-0.25577 -0.467104,-0.38241 -0.888834,-0.38241 z m 11.461315,2.01745 c -0.0418,0.0135 -0.0685,0.0219 -0.12144,0.0393 -0.24055,0.079 -0.59561,0.19842 -1.064535,0.35708 -0.328229,0.10831 -0.559006,0.25432 -0.704866,0.42789 -0.145938,0.17357 -0.21704,0.37771 -0.21704,0.64233 -1.1e-5,0.25555 0.0612,0.41018 0.160197,0.50798 0.09898,0.0978 0.257927,0.1602 0.517798,0.1602 0.143118,0 0.282493,-0.0135 0.418063,-0.0393 0.129483,-0.0247 0.290033,-0.0734 0.476453,-0.14625 0.15926,-0.0683 0.28374,-0.1769 0.38499,-0.34365 0.0975,-0.16053 0.15038,-0.36571 0.15038,-0.62735 z m 15.02699,0 c -0.0418,0.0135 -0.068,0.0219 -0.12092,0.0393 -0.24056,0.079 -0.59562,0.19842 -1.06454,0.35708 -0.32821,0.10831 -0.55746,0.25433 -0.70331,0.42789 -0.14589,0.17358 -0.2186,0.37771 -0.2186,0.64233 0,0.25555 0.0612,0.41018 0.1602,0.50798 0.099,0.0978 0.25742,0.1602 0.51728,0.1602 0.14311,0 0.28251,-0.0135 0.41807,-0.0393 0.12996,-0.0247 0.29121,-0.0729 0.47852,-0.14625 10e-4,0 10e-4,-0.002 0.002,-0.002 0.001,-2.6e-4 0.001,2.6e-4 0.002,0 0.15737,-0.0684 0.27838,-0.1762 0.37879,-0.34158 0.0975,-0.16053 0.15038,-0.36571 0.15038,-0.62735 z m 12.27935,0 c -0.042,0.0136 -0.0676,0.0218 -0.12092,0.0393 -0.24055,0.079 -0.59561,0.19842 -1.06454,0.35708 h -0.002 c -0.32822,0.10831 -0.55694,0.25432 -0.7028,0.42789 -0.14593,0.17357 -0.21704,0.37771 -0.21704,0.64233 0,0.25555 0.0612,0.41018 0.1602,0.50798 0.099,0.0978 0.25793,0.1602 0.5178,0.1602 0.14312,0 0.28197,-0.0135 0.41755,-0.0393 0.12948,-0.0247 0.29056,-0.0734 0.47697,-0.14625 0.15926,-0.0683 0.28323,-0.1769 0.38447,-0.34365 0.0975,-0.16053 0.15038,-0.36571 0.15038,-0.62735 z m -8.99531,6.66677 v 4.8979 h 0.66197 v -4.8979 z m 4.93458,0 v 0.73329 h 0.66146 v -0.73329 z m -25.43824,0.11318 c -0.8128,0 -1.452758,0.21824 -1.920298,0.65474 -0.46754,0.4344 -0.701249,1.02942 -0.701249,1.7849 0,0.75338 0.233709,1.3484 0.701249,1.7849 0.46754,0.4344 1.107498,0.65164 1.920298,0.65164 0.316492,0 0.616249,-0.0381 0.899168,-0.11368 0.285322,-0.0755 0.555102,-0.18894 0.809252,-0.34004 v -0.66404 c -0.24456,0.19936 -0.505804,0.34837 -0.783928,0.447 -0.275733,0.0986 -0.569392,0.1478 -0.881084,0.1478 -0.613802,0 -1.083654,-0.16355 -1.409734,-0.49093 -0.326078,-0.32947 -0.489376,-0.80358 -0.489376,-1.42265 0,-0.62117 0.163298,-1.0958 0.489376,-1.42317 0.32608,-0.32947 0.795932,-0.49402 1.409734,-0.49402 0.311692,0 0.605351,0.0492 0.881084,0.14779 0.278124,0.0986 0.539368,0.24764 0.783928,0.447 v -0.67024 c -0.24936,-0.149 -0.516697,-0.26038 -0.802015,-0.33383 -0.282922,-0.0756 -0.585118,-0.11317 -0.906405,-0.11317 z m 22.53557,0.25786 v 1.00149 h -0.48524 v 0.4501 h 0.48524 v 1.91358 c 0,0.44069 0.0973,0.74524 0.29146,0.91312 0.19421,0.16579 0.5466,0.24857 1.0573,0.24857 h 0.67954 v -0.48473 h -0.67954 c -0.27573,0 -0.45924,-0.0411 -0.55036,-0.12299 -0.0887,-0.0819 -0.1328,-0.26647 -0.1328,-0.55397 V 153.995 h 1.3627 v -0.4501 h -1.3627 v -1.00149 z m -18.16581,0.91622 c -0.57784,0 -1.03061,0.16356 -1.35909,0.49093 -0.32608,0.32737 -0.48938,0.78092 -0.48938,1.36012 0,0.57711 0.1633,1.03014 0.48938,1.35961 0.32848,0.32738 0.78125,0.49144 1.35909,0.49144 0.57543,0 1.02751,-0.16406 1.35599,-0.49144 0.32847,-0.32947 0.49299,-0.7825 0.49299,-1.35961 0,-0.5792 -0.16452,-1.03275 -0.49299,-1.36012 -0.32848,-0.32737 -0.78056,-0.49093 -1.35599,-0.49093 z m 4.88394,0 c -0.28053,0 -0.52836,0.0527 -0.74414,0.15762 -0.2134,0.10492 -0.39935,0.26295 -0.55759,0.4749 v -0.54725 h -0.66508 v 3.52537 h 0.66508 v -1.99265 c 0,-0.34416 0.10334,-0.61609 0.30954,-0.81545 0.2062,-0.19937 0.48766,-0.29869 0.84491,-0.29869 0.29731,0 0.52056,0.0828 0.66921,0.24856 0.14865,0.16579 0.22273,0.41565 0.22273,0.74931 v 2.10892 h 0.66197 v -2.12804 c 0,-0.48686 -0.11868,-0.85511 -0.35605,-1.10484 -0.23737,-0.25183 -0.58784,-0.37776 -1.05058,-0.37776 z m 4.01371,0 c -0.49392,0 -0.87507,0.0903 -1.1436,0.27079 -0.26854,0.18047 -0.40256,0.43634 -0.40256,0.76791 0,0.27281 0.0911,0.48805 0.27337,0.64544 0.18222,0.15529 0.47832,0.27068 0.88831,0.34623 l 0.22996,0.047 c 0.41,0.0777 0.67491,0.15842 0.79479,0.24236 0.12228,0.084 0.18345,0.20487 0.18345,0.36226 0,0.16998 -0.0838,0.30192 -0.25166,0.39635 -0.16785,0.0923 -0.40765,0.13849 -0.71934,0.13849 -0.23257,0 -0.4675,-0.0271 -0.70487,-0.0817 -0.23737,-0.0567 -0.47839,-0.14044 -0.72295,-0.25166 v 0.5979 c 0.25895,0.0734 0.50485,0.12814 0.73742,0.16381 0.23497,0.0378 0.46013,0.0568 0.67593,0.0568 0.51789,0 0.92413,-0.0958 1.21905,-0.2868 0.2973,-0.19097 0.44596,-0.44984 0.44596,-0.77722 0,-0.2875 -0.0992,-0.51127 -0.29817,-0.67076 -0.19661,-0.16158 -0.53001,-0.28651 -0.99994,-0.37465 l -0.22634,-0.0439 c -0.35485,-0.0693 -0.591,-0.14149 -0.70849,-0.21704 -0.11747,-0.0777 -0.17621,-0.18402 -0.17621,-0.31833 0,-0.17628 0.0814,-0.30822 0.24443,-0.39636 0.16543,-0.0881 0.41204,-0.13229 0.74052,-0.13229 0.21579,0 0.4244,0.021 0.6258,0.0631 0.2014,0.042 0.3959,0.10468 0.58291,0.18862 v -0.54725 -5.3e-4 c -0.18222,-0.063 -0.38107,-0.11013 -0.59686,-0.1416 -0.21579,-0.0315 -0.44635,-0.047 -0.69091,-0.047 z m 16.1556,0 c -0.28053,0 -0.52887,0.0527 -0.74466,0.15762 -0.21339,0.10492 -0.39883,0.26295 -0.55707,0.4749 v -0.54725 h -0.66559 v 3.52537 h 0.66559 v -1.99265 c 0,-0.34416 0.10283,-0.61609 0.30902,-0.81545 0.2062,-0.19937 0.48818,-0.29869 0.84543,-0.29869 0.29732,0 0.52004,0.0828 0.6687,0.24856 0.14865,0.16579 0.22324,0.41565 0.22324,0.74931 v 2.10892 h 0.66146 v -2.12804 c 0,-0.48686 -0.11869,-0.85511 -0.35606,-1.10484 -0.23736,-0.25183 -0.58731,-0.37776 -1.05006,-0.37776 z m 4.09277,0 c -0.49391,0 -0.89214,0.16455 -1.19424,0.49403 -0.30211,0.32947 -0.4532,0.76748 -0.4532,1.3131 0,0.54353 0.15109,0.98001 0.4532,1.30948 0.3021,0.32947 0.70033,0.49403 1.19424,0.49403 0.29731,0 0.55246,-0.0517 0.76585,-0.15452 0.21339,-0.10283 0.38836,-0.25784 0.52503,-0.4656 v 0.28629 c 0,0.40082 -0.13255,1.36381 -0.46819,1.61592 -0.25662,0.19297 -0.39594,0.26947 -0.82992,0.29197 -0.38084,-0.002 -54.340016,0 -54.717076,0 v 0.47801 c 0.389152,0 54.383076,-0.003 54.821456,0 0.6256,-0.0483 1.16756,-0.37453 1.40664,-0.78445 0.21244,-0.36426 0.44906,-1.10513 0.44906,-1.70532 v -3.08767 h -0.66197 v 0.53485 c -0.13667,-0.20776 -0.31164,-0.36277 -0.52503,-0.4656 -0.21339,-0.10284 -0.46854,-0.15452 -0.76585,-0.15452 z m -17.75602,0.0853 v 2.13424 c 0,0.48477 0.1199,0.85302 0.35967,1.10484 0.23977,0.25183 0.59145,0.37776 1.0542,0.37776 0.28052,0 0.52591,-0.0517 0.7369,-0.15451 0.2134,-0.10493 0.40057,-0.26447 0.56121,-0.47853 v 0.54157 h 0.66146 v -3.52536 h -0.66146 v 1.99884 c 0,0.34417 -0.10457,0.61558 -0.31316,0.81494 -0.2062,0.19936 -0.48766,0.29921 -0.84491,0.29921 -0.29731,0 -0.52056,-0.0828 -0.66921,-0.24857 -0.14865,-0.16787 -0.22273,-0.41873 -0.22273,-0.75241 v -2.11201 z m 9.67848,0 v 3.52537 h 0.66146 v -3.52536 z m 8.23929,0.39946 c 0.35724,0 0.63435,0.1154 0.83096,0.34624 0.19901,0.23084 0.29817,0.55645 0.29817,0.97616 0,0.41762 -0.0992,0.74171 -0.29817,0.97256 -0.19661,0.23083 -0.47372,0.34623 -0.83096,0.34623 -0.35486,0 -0.63195,-0.1154 -0.83096,-0.34623 -0.19661,-0.23085 -0.29455,-0.55494 -0.29455,-0.97256 0,-0.41971 0.0979,-0.74532 0.29455,-0.97616 0.19901,-0.23084 0.4761,-0.34624 0.83096,-0.34624 z m -29.30777,0.006 c 0.35245,0 0.632,0.12292 0.83819,0.36846 0.2062,0.24343 0.30903,0.57406 0.30903,0.99167 0,0.41971 -0.10283,0.75134 -0.30903,0.99477 -0.20619,0.24343 -0.48574,0.36484 -0.83819,0.36484 -0.35726,0 -0.63872,-0.12041 -0.84491,-0.36174 -0.2038,-0.24342 -0.30593,-0.57606 -0.30593,-0.99787 0,-0.42181 0.10335,-0.75344 0.30954,-0.99477 0.20621,-0.24344 0.48644,-0.36536 0.8413,-0.36536 z"
       id="rect2021" />
  </g>
</svg>
